<svg id="cashier" enable-background="new 0 0 512 512" height="512" viewBox="0 0 512 512" width="512" xmlns="http://www.w3.org/2000/svg"><path d="m511.917 147.432c-.006-.056-.019-.11-.025-.166-.054-.466-.124-.926-.219-1.378-.015-.071-.038-.14-.054-.211-.098-.434-.21-.862-.345-1.281-.034-.105-.077-.206-.114-.31-.131-.379-.271-.753-.431-1.118-.014-.033-.024-.067-.038-.099l-54.705-122.172c-5.63-12.573-18.169-20.697-31.944-20.697h-336.091c-13.768 0-26.304 8.118-31.937 20.681l-54.701 122c-.866 1.93-1.313 4.022-1.313 6.137v49.034c0 29.353 16.712 55.031 41 67.719v211.429c0 19.299 15.701 35 35 35h360c19.299 0 35-15.701 35-35v-211.429c24.288-12.688 41-38.365 41-67.719v-48.852c0-.53-.029-1.052-.083-1.568zm-423.966-117.432h58.893l-23.35 104h-85.411l45.305-101.045c.805-1.795 2.596-2.955 4.563-2.955zm273.395 171.436c-1.395 23.704-21.048 42.564-45.096 42.564-24.951 0-45.25-20.299-45.25-45.25 0-.127 0-34.75 0-34.75h90.346zm-120.346-171.436v104h-86.759l23.35-104zm93.408 0 23.351 104h-86.759v-104zm-183.754 171.436c0-3.436 0-37.436 0-37.436h90.346v34.75c0 24.951-20.299 45.25-45.25 45.25-24.048 0-43.701-18.86-45.096-42.564zm-120.654-37.436h90.5v34.75c0 12.198-4.781 23.635-13.463 32.205-8.68 8.568-20.179 13.174-32.392 13.041-24.618-.319-44.645-21.019-44.645-46.144zm407.355 79.996c-12.227.131-23.712-4.473-32.392-13.041-8.682-8.57-13.616-20.007-13.616-32.205 0-1.267 0-34.75 0-34.75h90.653v33.852c0 25.125-20.027 45.825-44.645 46.144zm-48.849-109.996-23.351-104h58.887c1.968 0 3.759 1.161 4.563 2.957l45.243 101.043zm-217.506 228h70v120h-70zm100 0h70v120h-70zm170 115c0 2.757-2.243 5-5 5h-65v-120h5c8.284 0 15-6.716 15-15s-6.716-15-15-15h-240c-8.284 0-15 6.716-15 15s6.716 15 15 15h5v120h-65c-2.757 0-5-2.243-5-5v-203.133c1.08.061 2.164.112 3.255.126 20.28.271 39.421-7.438 53.856-21.688 2.703-2.668 5.178-5.503 7.417-8.482 13.739 18.31 35.621 30.177 60.222 30.177 24.619 0 46.513-11.882 60.25-30.214 13.737 18.332 35.631 30.214 60.25 30.214 24.601 0 46.483-11.867 60.222-30.176 2.238 2.979 4.714 5.814 7.417 8.482 14.435 14.249 33.593 21.971 53.856 21.688 1.092-.014 2.175-.064 3.256-.126v203.132z"/></svg>