<?xml version="1.0" encoding="iso-8859-1"?>
<!-- Generator: Adobe Illustrator 19.0.0, SVG Export Plug-In . SVG Version: 6.00 Build 0)  -->
<svg version="1.1" id="category" xmlns="http://www.w3.org/2000/svg" xmlns:xlink="http://www.w3.org/1999/xlink" x="0px" y="0px"
	 viewBox="0 0 512 512" style="enable-background:new 0 0 512 512;" xml:space="preserve">
<g>
	<path style="fill:#607D8B;" d="M501.333,64H138.667C132.776,64,128,59.224,128,53.333s4.776-10.667,10.667-10.667h362.667
		c5.891,0,10.667,4.776,10.667,10.667S507.224,64,501.333,64z"/>
	<path style="fill:#607D8B;" d="M352,128H138.667c-5.891,0-10.667-4.776-10.667-10.667s4.776-10.667,10.667-10.667H352
		c5.891,0,10.667,4.776,10.667,10.667S357.891,128,352,128z"/>
	<path style="fill:#607D8B;" d="M501.333,234.667H138.667c-5.891,0-10.667-4.776-10.667-10.667c0-5.891,4.776-10.667,10.667-10.667
		h362.667c5.891,0,10.667,4.776,10.667,10.667C512,229.891,507.224,234.667,501.333,234.667z"/>
	<path style="fill:#607D8B;" d="M352,298.667H138.667c-5.891,0-10.667-4.776-10.667-10.667c0-5.891,4.776-10.667,10.667-10.667H352
		c5.891,0,10.667,4.776,10.667,10.667C362.667,293.891,357.891,298.667,352,298.667z"/>
	<path style="fill:#607D8B;" d="M501.333,405.333H138.667c-5.891,0-10.667-4.776-10.667-10.667c0-5.891,4.776-10.667,10.667-10.667
		h362.667c5.891,0,10.667,4.776,10.667,10.667C512,400.558,507.224,405.333,501.333,405.333z"/>
	<path style="fill:#607D8B;" d="M352,469.333H138.667c-5.891,0-10.667-4.776-10.667-10.667c0-5.891,4.776-10.667,10.667-10.667H352
		c5.891,0,10.667,4.776,10.667,10.667C362.667,464.558,357.891,469.333,352,469.333z"/>
</g>
<g>
	<circle style="fill:#2196F3;" cx="42.667" cy="85.333" r="42.667"/>
	<circle style="fill:#2196F3;" cx="42.667" cy="256" r="42.667"/>
	<circle style="fill:#2196F3;" cx="42.667" cy="426.667" r="42.667"/>
</g>
<path d="M501.333,64H138.667C132.776,64,128,59.224,128,53.333s4.776-10.667,10.667-10.667h362.667
	c5.891,0,10.667,4.776,10.667,10.667S507.224,64,501.333,64z"/>
<path d="M352,128H138.667c-5.891,0-10.667-4.776-10.667-10.667s4.776-10.667,10.667-10.667H352c5.891,0,10.667,4.776,10.667,10.667
	S357.891,128,352,128z"/>
<path d="M501.333,234.667H138.667c-5.891,0-10.667-4.776-10.667-10.667c0-5.891,4.776-10.667,10.667-10.667h362.667
	c5.891,0,10.667,4.776,10.667,10.667C512,229.891,507.224,234.667,501.333,234.667z"/>
<path d="M352,298.667H138.667c-5.891,0-10.667-4.776-10.667-10.667c0-5.891,4.776-10.667,10.667-10.667H352
	c5.891,0,10.667,4.776,10.667,10.667C362.667,293.891,357.891,298.667,352,298.667z"/>
<path d="M501.333,405.333H138.667c-5.891,0-10.667-4.776-10.667-10.667c0-5.891,4.776-10.667,10.667-10.667h362.667
	c5.891,0,10.667,4.776,10.667,10.667C512,400.558,507.224,405.333,501.333,405.333z"/>
<path d="M352,469.333H138.667c-5.891,0-10.667-4.776-10.667-10.667c0-5.891,4.776-10.667,10.667-10.667H352
	c5.891,0,10.667,4.776,10.667,10.667C362.667,464.558,357.891,469.333,352,469.333z"/>
<path d="M42.667,128C19.103,128,0,108.897,0,85.333s19.103-42.667,42.667-42.667s42.667,19.103,42.667,42.667S66.231,128,42.667,128
	z M42.667,64c-11.782,0-21.333,9.551-21.333,21.333s9.551,21.333,21.333,21.333S64,97.115,64,85.333S54.449,64,42.667,64z"/>
<path d="M42.667,298.667C19.103,298.667,0,279.564,0,256s19.103-42.667,42.667-42.667S85.333,232.436,85.333,256
	S66.231,298.667,42.667,298.667z M42.667,234.667c-11.782,0-21.333,9.551-21.333,21.333c0,11.782,9.551,21.333,21.333,21.333
	S64,267.782,64,256C64,244.218,54.449,234.667,42.667,234.667z"/>
<path d="M42.667,469.333C19.103,469.333,0,450.231,0,426.667C0,403.103,19.103,384,42.667,384s42.667,19.103,42.667,42.667
	C85.333,450.231,66.231,469.333,42.667,469.333z M42.667,405.333c-11.782,0-21.333,9.551-21.333,21.333
	c0,11.782,9.551,21.333,21.333,21.333S64,438.449,64,426.667C64,414.885,54.449,405.333,42.667,405.333z"/>
<g>
</g>
<g>
</g>
<g>
</g>
<g>
</g>
<g>
</g>
<g>
</g>
<g>
</g>
<g>
</g>
<g>
</g>
<g>
</g>
<g>
</g>
<g>
</g>
<g>
</g>
<g>
</g>
<g>
</g>
</svg>
